<svg width="1920" height="1659" viewBox="0 0 1920 1659" fill="none" xmlns="http://www.w3.org/2000/svg">
<g clip-path="url(#clip0_414_11568)">
<rect width="1920" height="1659" fill="#F3FCFF"/>
<g filter="url(#filter0_f_414_11568)">
<path d="M649 518.141C649 726.431 449.543 895.283 203.5 895.283C-164.266 895.283 -242 1004.69 -242 796.402C-242 588.113 -42.5429 141 203.5 141C449.543 141 649 309.852 649 518.141Z" fill="url(#paint0_linear_414_11568)" fill-opacity="0.5"/>
</g>
<g filter="url(#filter1_f_414_11568)">
<path d="M2194 1298.25C2194 1504.94 1981.56 1672.5 1719.5 1672.5C1327.79 1672.5 1245 1781.07 1245 1574.38C1245 1367.69 1457.44 924 1719.5 924C1981.56 924 2194 1091.56 2194 1298.25Z" fill="url(#paint1_linear_414_11568)" fill-opacity="0.5"/>
</g>
</g>
<defs>
<filter id="filter0_f_414_11568" x="-442" y="-59" width="1291" height="1183" filterUnits="userSpaceOnUse" color-interpolation-filters="sRGB">
<feFlood flood-opacity="0" result="BackgroundImageFix"/>
<feBlend mode="normal" in="SourceGraphic" in2="BackgroundImageFix" result="shape"/>
<feGaussianBlur stdDeviation="100" result="effect1_foregroundBlur_414_11568"/>
</filter>
<filter id="filter1_f_414_11568" x="1045" y="724" width="1349" height="1177" filterUnits="userSpaceOnUse" color-interpolation-filters="sRGB">
<feFlood flood-opacity="0" result="BackgroundImageFix"/>
<feBlend mode="normal" in="SourceGraphic" in2="BackgroundImageFix" result="shape"/>
<feGaussianBlur stdDeviation="100" result="effect1_foregroundBlur_414_11568"/>
</filter>
<linearGradient id="paint0_linear_414_11568" x1="412.608" y1="165.72" x2="412.608" y2="948.72" gradientUnits="userSpaceOnUse">
<stop stop-color="#4FA6C0"/>
<stop offset="1" stop-color="#F59B1E"/>
</linearGradient>
<linearGradient id="paint1_linear_414_11568" x1="1942.22" y1="948.531" x2="1942.22" y2="1725.53" gradientUnits="userSpaceOnUse">
<stop stop-color="#4FA6C0"/>
<stop offset="1" stop-color="#F59B1E"/>
</linearGradient>
<clipPath id="clip0_414_11568">
<rect width="1920" height="1659" fill="white"/>
</clipPath>
</defs>
</svg>
