<svg width="45" height="48" viewBox="0 0 45 48" fill="none" xmlns="http://www.w3.org/2000/svg">
<path d="M45 23.6999C45 19.0126 43.6805 14.4306 41.2082 10.5332C38.736 6.63585 35.2222 3.59818 31.111 1.80431C26.9998 0.0104452 22.4759 -0.459047 18.1114 0.455202C13.7469 1.36945 9.73778 3.62638 6.591 6.9406C3.44422 10.2548 1.3011 14.4775 0.432649 19.0746C-0.435803 23.6718 0.00941133 28.437 1.712 32.7676C3.41458 37.0982 6.29807 40.7998 9.99784 43.4043C13.6976 46.0088 18.0475 47.3992 22.4975 47.3998L22.5 47.4L22.5025 47.3998C28.4674 47.3919 34.1858 44.8924 38.4033 40.4494C42.6209 36.0065 44.9932 29.9828 45 23.6999ZM23.4 45.4819V28.4401H29.7C29.9387 28.4401 30.1676 28.3402 30.3364 28.1624C30.5052 27.9847 30.6 27.7435 30.6 27.4921C30.6 27.2407 30.5052 26.9996 30.3364 26.8218C30.1676 26.644 29.9387 26.5441 29.7 26.5441H23.4V19.9081C23.4013 18.6515 23.8759 17.4466 24.7195 16.558C25.5631 15.6694 26.7069 15.1696 27.9 15.1682H31.5C31.7387 15.1682 31.9676 15.0683 32.1364 14.8905C32.3052 14.7127 32.4 14.4716 32.4 14.2202C32.4 13.9688 32.3052 13.7276 32.1364 13.5498C31.9676 13.3721 31.7387 13.2722 31.5 13.2722H27.9C26.2297 13.2742 24.6284 13.9739 23.4473 15.218C22.2662 16.462 21.6019 18.1488 21.6 19.9081V26.5441H15.3C15.0613 26.5441 14.8324 26.644 14.6636 26.8218C14.4948 26.9996 14.4 27.2407 14.4 27.4921C14.4 27.7435 14.4948 27.9847 14.6636 28.1624C14.8324 28.3402 15.0613 28.4401 15.3 28.4401H21.6V45.4819C16.1931 45.2341 11.0934 42.7656 7.39332 38.6053C3.69328 34.445 1.68722 28.9238 1.8049 23.2245C1.92258 17.5252 4.15464 12.1011 8.02291 8.11424C11.8912 4.12734 17.088 1.89475 22.5 1.89475C27.912 1.89475 33.1088 4.12734 36.9771 8.11424C40.8454 12.1011 43.0774 17.5252 43.1951 23.2245C43.3128 28.9238 41.3067 34.445 37.6067 38.6053C33.9067 42.7656 28.8069 45.234 23.4 45.4819Z" fill="#F3FCFF"/>
</svg>
