<svg width="45" height="48" viewBox="0 0 45 48" fill="none" xmlns="http://www.w3.org/2000/svg">
<path d="M22.5 12.8375C20.4604 12.8375 18.4666 13.4746 16.7707 14.6682C15.0748 15.8617 13.753 17.5582 12.9725 19.5431C12.192 21.528 11.9877 23.712 12.3857 25.8192C12.7836 27.9263 13.7657 29.8618 15.208 31.3809C16.6502 32.9001 18.4877 33.9347 20.4881 34.3538C22.4886 34.7729 24.5621 34.5578 26.4464 33.7356C28.3308 32.9135 29.9414 31.5212 31.0745 29.7349C32.2077 27.9486 32.8125 25.8484 32.8125 23.7C32.8094 20.8201 31.7219 18.0591 29.7886 16.0226C27.8553 13.9862 25.2341 12.8408 22.5 12.8375ZM22.5 32.5875C20.8312 32.5875 19.1999 32.0663 17.8124 31.0897C16.4248 30.1131 15.3434 28.7251 14.7048 27.1011C14.0662 25.4771 13.8991 23.6901 14.2246 21.9661C14.5502 20.2421 15.3538 18.6585 16.5338 17.4156C17.7138 16.1726 19.2172 15.3262 20.8539 14.9833C22.4906 14.6403 24.1871 14.8163 25.7289 15.489C27.2706 16.1617 28.5884 17.3008 29.5155 18.7624C30.4426 20.2239 30.9375 21.9422 30.9375 23.7C30.935 26.0563 30.0452 28.3153 28.4634 29.9815C26.8816 31.6476 24.737 32.5848 22.5 32.5875ZM32.8125 0H12.1875C8.9563 0.00385514 5.85849 1.35761 3.57368 3.76428C1.28887 6.17094 0.00365995 9.43397 0 12.8375V34.5625C0.00365995 37.966 1.28887 41.2291 3.57368 43.6357C5.85849 46.0424 8.9563 47.3961 12.1875 47.4H32.8125C36.0437 47.3961 39.1415 46.0424 41.4263 43.6357C43.7111 41.2291 44.9963 37.966 45 34.5625V12.8375C44.9963 9.43397 43.7111 6.17094 41.4263 3.76428C39.1415 1.35761 36.0437 0.00385514 32.8125 0ZM43.125 34.5625C43.1219 37.4424 42.0344 40.2034 40.1011 42.2399C38.1678 44.2763 35.5466 45.4217 32.8125 45.425H12.1875C9.4534 45.4217 6.83217 44.2763 4.89887 42.2399C2.96557 40.2034 1.87809 37.4424 1.875 34.5625V12.8375C1.87809 9.95758 2.96557 7.19655 4.89887 5.16015C6.83217 3.12374 9.4534 1.97825 12.1875 1.975H32.8125C35.5466 1.97825 38.1678 3.12374 40.1011 5.16015C42.0344 7.19655 43.1219 9.95758 43.125 12.8375V34.5625ZM36.5625 10.8625C36.5625 11.2531 36.4525 11.635 36.2465 11.9598C36.0405 12.2845 35.7476 12.5377 35.405 12.6872C35.0624 12.8366 34.6854 12.8758 34.3217 12.7996C33.958 12.7233 33.6239 12.5352 33.3617 12.259C33.0994 11.9828 32.9209 11.6309 32.8485 11.2478C32.7762 10.8647 32.8133 10.4676 32.9552 10.1067C33.0971 9.74582 33.3375 9.43736 33.6458 9.22035C33.9541 9.00333 34.3167 8.8875 34.6875 8.8875C35.1846 8.8881 35.6612 9.09637 36.0127 9.46663C36.3642 9.83688 36.5619 10.3389 36.5625 10.8625Z" fill="#F3FCFF"/>
</svg>
