<svg width="45" height="48" viewBox="0 0 45 48" fill="none" xmlns="http://www.w3.org/2000/svg">
<path d="M15 11.85C15 12.2406 14.89 12.6225 14.684 12.9473C14.478 13.272 14.1851 13.5252 13.8425 13.6747C13.4999 13.8241 13.1229 13.8633 12.7592 13.7871C12.3955 13.7108 12.0614 13.5227 11.7992 13.2465C11.537 12.9703 11.3584 12.6184 11.286 12.2353C11.2137 11.8522 11.2508 11.4551 11.3927 11.0942C11.5346 10.7333 11.775 10.4249 12.0833 10.2078C12.3916 9.99083 12.7542 9.875 13.125 9.875C13.3712 9.875 13.615 9.92608 13.8425 10.0253C14.07 10.1246 14.2767 10.2701 14.4508 10.4535C14.6249 10.6369 14.7631 10.8546 14.8573 11.0942C14.9515 11.3338 15 11.5906 15 11.85ZM13.125 18.7627C12.8764 18.7627 12.6379 18.8668 12.4621 19.052C12.2863 19.2372 12.1875 19.4883 12.1875 19.7502V35.5502C12.1875 35.8121 12.2863 36.0633 12.4621 36.2485C12.6379 36.4337 12.8764 36.5378 13.125 36.5378C13.3736 36.5378 13.6121 36.4337 13.7879 36.2485C13.9637 36.0633 14.0625 35.8121 14.0625 35.5502V19.7502C14.0625 19.4883 13.9637 19.2372 13.7879 19.052C13.6121 18.8668 13.3736 18.7627 13.125 18.7627ZM27.1875 18.7627C26.1226 18.7626 25.07 19.0018 24.1 19.4645C23.13 19.9272 22.2649 20.6026 21.5625 21.4457V19.7502C21.5625 19.4883 21.4637 19.2372 21.2879 19.052C21.1121 18.8668 20.8736 18.7627 20.625 18.7627C20.3764 18.7627 20.1379 18.8668 19.9621 19.052C19.7863 19.2372 19.6875 19.4883 19.6875 19.7502V35.5502C19.6875 35.8121 19.7863 36.0633 19.9621 36.2485C20.1379 36.4337 20.3764 36.5378 20.625 36.5378C20.8736 36.5378 21.1121 36.4337 21.2879 36.2485C21.4637 36.0633 21.5625 35.8121 21.5625 35.5502V26.6627C21.5625 25.0913 22.1551 23.5843 23.21 22.4731C24.2649 21.362 25.6957 20.7377 27.1875 20.7377C28.6793 20.7377 30.1101 21.362 31.165 22.4731C32.2199 23.5843 32.8125 25.0913 32.8125 26.6627V35.5502C32.8125 35.8121 32.9113 36.0633 33.0871 36.2485C33.2629 36.4337 33.5014 36.5378 33.75 36.5378C33.9986 36.5378 34.2371 36.4337 34.4129 36.2485C34.5887 36.0633 34.6875 35.8121 34.6875 35.5502V26.6627C34.6853 24.5683 33.8944 22.5602 32.4883 21.0792C31.0823 19.5982 29.1759 18.7651 27.1875 18.7627ZM45 2.9625V44.4375C44.9991 45.2229 44.7026 45.9759 44.1753 46.5313C43.648 47.0867 42.9332 47.3991 42.1875 47.4H2.8125C2.06684 47.3991 1.35197 47.0867 0.824704 46.5313C0.297443 45.9759 0.000852936 45.2229 0 44.4375V2.9625C0.000843032 2.17707 0.29743 1.42406 0.824693 0.868677C1.35196 0.313293 2.06684 0.000887993 2.8125 0H42.1875C42.9332 0.000887993 43.648 0.313293 44.1753 0.868677C44.7026 1.42406 44.9992 2.17707 45 2.9625ZM43.125 2.9625C43.1247 2.70069 43.0259 2.44969 42.8501 2.26456C42.6743 2.07944 42.4361 1.9753 42.1875 1.975H2.8125C2.56395 1.9753 2.32566 2.07944 2.1499 2.26456C1.97415 2.44969 1.87528 2.70069 1.875 2.9625V44.4375C1.87528 44.6993 1.97415 44.9503 2.1499 45.1354C2.32566 45.3206 2.56395 45.4247 2.8125 45.425H42.1875C42.4361 45.4247 42.6743 45.3206 42.8501 45.1354C43.0259 44.9503 43.1247 44.6993 43.125 44.4375V2.9625Z" fill="#F3FCFF"/>
</svg>
